<?xml version="1.0" encoding="utf-8"?>
<!-- Generator: Adobe Illustrator 21.1.0, SVG Export Plug-In . SVG Version: 6.00 Build 0)  -->
<svg version="1.1" id="Layer_1" xmlns="http://www.w3.org/2000/svg" xmlns:xlink="http://www.w3.org/1999/xlink" x="0px" y="0px"
	 viewBox="0 0 25 22.4" style="enable-background:new 0 0 25 22.4;" xml:space="preserve">
<style type="text/css">
	.st0{fill:#FFFFFF;stroke:#FFFFFF;stroke-width:0;stroke-miterlimit:10;}
</style>
<g>
	<path class="st0" d="M25,1.6c0-0.2-0.1-0.4-0.3-0.5l0,0c0,0,0,0,0,0C21-0.2,17-0.3,13.4,0.8L12.5,1l-0.9-0.3C8-0.3,4-0.2,0.3,1.1
		C0.1,1.2,0,1.4,0,1.6v18c0,0.1,0,0.1,0,0.2l0,0l1.2,2.7l0.4-0.2c3.5-1.3,6.2-1.4,9.7-0.3l1.2,0.4l1.1-0.3c3.5-1.1,6.2-1,9.7,0.3
		l0.4,0.2l1.2-2.7l0,0c0-0.1,0-0.1,0-0.2V1.6z M13.7,1.7c3.4-1,7-1,10.3,0.2v16.9c-3.4-1.1-7.2-1.1-10.7-0.1L13,18.9v-17L13.7,1.7z
		 M1,1.9c3.3-1.1,7-1.2,10.3-0.2L12,1.9v17l-0.4-0.1C10,18.3,8.2,18,6.5,18c-1.8,0-3.7,0.3-5.5,0.9V1.9z M23.2,21.2
		c-3.5-1.2-6.4-1.2-9.9-0.2l-0.8,0.3L11.6,21c-3.5-1.1-6.4-1-9.9,0.2l-0.6-1.3c3.3-1.1,6.9-1.1,10.2-0.1l1,0.3c0.1,0,0.2,0,0.3,0
		l1-0.3c3.3-1,6.9-1,10.2,0.1L23.2,21.2z"/>
	<path class="st0" d="M5.1,9c0.1,0.1,0.2,0.1,0.4,0.1s0.3,0,0.4-0.1l3.6-3.6c0.2-0.2,0.2-0.5,0-0.7s-0.5-0.2-0.7,0L5.4,8L4.2,6.8
		C4,6.6,3.7,6.6,3.5,6.8s-0.2,0.5,0,0.7L5.1,9z"/>
	<path class="st0" d="M9.4,10.7c-0.2-0.2-0.5-0.2-0.7,0L5.4,14l-1.2-1.2c-0.2-0.2-0.5-0.2-0.7,0s-0.2,0.5,0,0.7L5.1,15
		c0.1,0.1,0.2,0.1,0.4,0.1s0.3,0,0.4-0.1l3.6-3.6C9.5,11.2,9.5,10.9,9.4,10.7z"/>
	<rect x="15" y="6.1" class="st0" width="8" height="1"/>
	<rect x="15" y="11.1" class="st0" width="8" height="1"/>
</g>
</svg>
