<?xml version="1.0" encoding="utf-8"?>
<!-- Generator: Adobe Illustrator 21.0.0, SVG Export Plug-In . SVG Version: 6.00 Build 0)  -->
<svg version="1.1" id="Layer_1" xmlns="http://www.w3.org/2000/svg" xmlns:xlink="http://www.w3.org/1999/xlink" x="0px" y="0px"
	 viewBox="0 0 24 24" style="enable-background:new 0 0 24 24;" xml:space="preserve">
<style type="text/css">
	.st0{fill:#FCFCFC;}
</style>
<g>
	<g>
		<path class="st0" d="M11.5,21.3V14L9,14v-3.6h2.5V8.7c0-2.6,1.6-4.2,4.1-4.2c1.1,0,2,0.1,2.3,0.1h0.3v3.3h-1.9
			c-0.4,0-0.7,0.1-0.8,0.2c-0.1,0.1-0.2,0.4-0.2,0.7v1.4h2.9L17.6,14h-2.4v7.3H11.5z M12.3,13.2v7.3h2.1v-7.3h2.5l0.3-2h-2.8V9
			c0-0.4,0-0.9,0.3-1.3s0.8-0.5,1.5-0.5h1.1V5.4c-0.4,0-1-0.1-1.8-0.1c-2,0-3.3,1.3-3.3,3.4v2.5H9.7v2H12.3z"/>
	</g>
	<path class="st0" d="M19.3,21.7H4.7c-1.3,0-2.4-1.1-2.4-2.4V4.7c0-1.3,1.1-2.4,2.4-2.4h14.7c1.3,0,2.4,1.1,2.4,2.4v14.7
		C21.7,20.7,20.7,21.7,19.3,21.7z M4.7,3.1c-0.9,0-1.6,0.7-1.6,1.6v14.7c0,0.9,0.7,1.6,1.6,1.6h14.7c0.9,0,1.6-0.7,1.6-1.6V4.7
		c0-0.9-0.7-1.6-1.6-1.6H4.7z"/>
</g>
</svg>
